<?xml version="1.0" encoding="utf-8"?>
<!-- Generator: Adobe Illustrator 16.0.0, SVG Export Plug-In . SVG Version: 6.00 Build 0)  -->
<!DOCTYPE svg PUBLIC "-//W3C//DTD SVG 1.1//EN" "http://www.w3.org/Graphics/SVG/1.1/DTD/svg11.dtd">
<svg version="1.1" id="Layer_1" xmlns="http://www.w3.org/2000/svg" xmlns:xlink="http://www.w3.org/1999/xlink" x="0px" y="0px"
	 width="303.378px" height="202.703px" viewBox="0 0 303.378 202.703" enable-background="new 0 0 303.378 202.703"
	 xml:space="preserve">
<g>
	<path d="M98.38,63.919H54.534c-1.291,0-2.886-0.342-2.886,0.736v1.371v2.115v8.217v1.371v16.426v1.371v10.333v1.371v16.926v1.371
		v7.551v2.781v1.371c0,1.076,1.595,1.689,2.886,1.689H98.38c1.291,0,1.269-0.613,1.269-1.689v-1.371v-10.332v-1.371
		c0-1.078,0.022-1.236-1.269-1.236H67.648v-14h18.985c0.968,0,1.015-0.613,1.015-1.689v-1.371V95.526v-1.371
		c0-1.078-0.047-1.236-1.015-1.236H67.648v-13H98.38c1.291,0,1.269-1.114,1.269-2.19v-1.371V66.026v-1.371
		C99.648,63.577,99.671,63.919,98.38,63.919z"/>
	<path d="M148.55,139.192"/>
	<path d="M173.386,134.192l-26.75-34.75l-0.5-0.75l24.75-31c0,0,0.75-0.47,0.75-1.72s-0.971-2.053-2.048-2.053h-1.371l-12.582-0.28
		c-1.75-0.167-2.869,1.567-3.535,2.567l-22.451,27.986V65.598v-0.816c0-0.973-0.483-0.863-1.561-0.863h-1.371h-12.332h-1.371
		c-1.077,0-1.365-0.11-1.365,0.863v0.816v70.854v0.816c0,0.973,0.288,1.65,1.365,1.65h1.371h12.332h1.371
		c1.077,0,1.561-0.678,1.561-1.65v-0.816v-32.392l23.451,31.798c0.666,1,1.768,3.03,3.518,2.863l14.1,0.197h1.371
		c1.077,0,2.048-1.28,2.048-2.53S173.386,134.192,173.386,134.192z"/>
	<g>
		<path d="M180.208,138.733l0.333,0.02c-0.072,0-0.141-0.014-0.211-0.02H180.208z"/>
		<path d="M250.731,135.864l-0.349-0.596l-0.841-1.674l-32.951-68.78c-0.287-0.748-1.055-1.162-1.967-1.162
			c-0.852,0-1.582,0.266-1.908,1.266h-0.008L179,135.558l-0.286,0.392c-0.17,0.277-0.267,0.66-0.267,1.002
			c0,0.996,0.827,1.968,1.883,1.968h11.378h0.001h1.392c0.657,0,1.357-0.274,1.84-0.824c0.164-0.187,0.289-0.438,0.376-0.652
			l0.724-1.347l0.136-0.177h0.032l3.572-8h29.697l3.773,8.088l-0.005,0.012l0.052,0.419l0.075,0.481h0.009l0.588,0.809
			c0.088,0.214,0.213,0.346,0.376,0.533c0.483,0.549,1.183,0.658,1.841,0.658h1.1h0.01h10.912l0.696-0.094
			c1.156,0,2.094-0.908,2.094-1.973C250.998,136.511,250.901,136.144,250.731,135.864z M206.48,113.919l7.977-17.472l8.163,17.472
			H206.48z"/>
	</g>
</g>
</svg>
