<?xml version="1.0" encoding="utf-8"?>
<!-- Generator: Adobe Illustrator 16.0.0, SVG Export Plug-In . SVG Version: 6.00 Build 0)  -->
<!DOCTYPE svg PUBLIC "-//W3C//DTD SVG 1.1//EN" "http://www.w3.org/Graphics/SVG/1.1/DTD/svg11.dtd">
<svg version="1.1" id="Layer_1" xmlns="http://www.w3.org/2000/svg" xmlns:xlink="http://www.w3.org/1999/xlink" x="0px" y="0px"
	 width="140px" height="140px" viewBox="263.5 183 140 140" enable-background="new 263.5 183 140 140" xml:space="preserve">
<g>
	<circle cx="333.5" cy="253" r="55.5"/>
	<g>
		<path fill="#F2F2F2" d="M346.365,287.51l-12.027-11.826l5.633-0.968c0.626-0.106,1.021-0.848,0.882-1.653l-0.753-4.381
			c-0.139-0.807-0.758-1.373-1.384-1.267l-7.279,1.252l1.505-3.897c0.474-0.119,0.939-0.289,1.395-0.517
			c3.426-1.716,4.812-5.884,3.097-9.31c-0.075-0.15-0.162-0.293-0.247-0.438l0.121-0.02l-0.604-3.786l-3.831,0.61
			c-1.541-0.375-3.218-0.232-4.748,0.533c-0.191,0.096-0.373,0.202-0.551,0.312l-3.672,0.585l0.588,3.68
			c-0.372,1.538-0.228,3.209,0.536,4.735c0.241,0.479,0.535,0.917,0.863,1.312l-2.624,6.793c-1.539,1.188-2.317,3.157-1.973,5.107
			l-4.826,12.486c-0.469,1.213-0.229,2.437,0.534,2.73l4.146,1.602c0.764,0.295,1.763-0.448,2.23-1.66l3.986-10.317l13.812,13.581
			c0.761,0.747,1.842,0.88,2.416,0.297l3.115-3.171C347.277,289.337,347.127,288.257,346.365,287.51z M327.596,275.546
			c-1.229,0.451-2.591-0.179-3.04-1.405c-0.452-1.229,0.178-2.591,1.406-3.041c1.228-0.451,2.588,0.18,3.039,1.406
			C329.453,273.734,328.824,275.096,327.596,275.546z M328.229,257.998c0-1.715,1.391-3.104,3.104-3.104s3.104,1.39,3.104,3.104
			s-1.39,3.104-3.104,3.104S328.229,259.712,328.229,257.998z"/>
		<g>
			
				<ellipse transform="matrix(0.9896 -0.144 0.144 0.9896 -30.1306 52.6105)" fill="none" cx="348.491" cy="234.518" rx="4.272" ry="14.438"/>
			<path fill="#FFFFFF" d="M350.377,249.262c-2.938,0-5.577-7.252-6.569-14.076c-0.562-3.858-0.644-7.557-0.231-10.413
				c0.443-3.076,1.399-4.807,2.767-5.006c0.083-0.013,0.168-0.018,0.252-0.018c2.938,0,5.577,7.252,6.569,14.076
				c0.562,3.858,0.645,7.558,0.231,10.413c-0.442,3.074-1.399,4.807-2.766,5.006C350.547,249.256,350.461,249.262,350.377,249.262z
				 M346.594,220.662c-0.04,0-0.081,0.003-0.121,0.008c-0.885,0.129-1.63,1.711-1.993,4.232c-0.399,2.772-0.317,6.378,0.231,10.152
				c1.156,7.953,3.863,13.295,5.666,13.295c0.041,0,0.082-0.004,0.121-0.01c1.785-0.26,2.949-6.23,1.763-14.385
				C351.104,226.004,348.396,220.662,346.594,220.662z"/>
		</g>
		<g>
			<path fill="#FFFFFF" d="M313.181,254.82L313.181,254.82c-1.682,0-3.06-2.307-3.92-4.211c-1.164-2.578-2.11-6.107-2.662-9.903
				c-0.568-3.91-0.651-7.639-0.231-10.479c0.446-3.042,1.411-4.761,2.787-4.961l37.014-5.48c0.002,0,0.49,0.006,0.527,0.256
				c0.036,0.249-0.137,0.474-0.386,0.509c-0.002,0.002-0.003-0.007-0.005-0.007c0,0,0,0-0.001,0l0,0
				c-0.892,0-1.642,1.79-2.005,4.309c-0.4,2.778-0.316,6.453,0.24,10.28c1.192,8.2,3.877,13.294,5.68,13.294
				c0.042,0,0.085,0.005,0.127,0c0.251-0.036,0.48,0.142,0.518,0.39c0.036,0.25-0.137,0.483-0.386,0.521l-37.038,5.429
				C313.354,254.775,313.268,254.82,313.181,254.82z M344.601,220.938l-35.313,5.226c-0.896,0.132-1.651,1.697-2.019,4.188
				c-0.405,2.754-0.322,6.379,0.233,10.203c1.191,8.2,3.876,13.275,5.679,13.276l0,0c0.043,0,0.085-0.003,0.127-0.011l35.321-5.137
				c-0.963-0.815-1.76-2.238-2.33-3.5c-1.165-2.578-2.11-6.09-2.662-9.886C342.808,229.598,342.972,223.454,344.601,220.938z"/>
		</g>
		<path fill="#FFFFFF" d="M342.629,250.639c-1.366,0-2.744-1.429-4.002-4.154c-1.223-2.648-2.207-6.252-2.773-10.148
			c-0.564-3.893-0.648-7.628-0.232-10.517c0.459-3.178,1.473-4.971,2.933-5.184c0.353-0.051,0.674,0.191,0.726,0.542
			c0.051,0.348-0.19,0.672-0.541,0.724c-0.621,0.091-1.436,1.215-1.852,4.101c-0.398,2.771-0.316,6.375,0.232,10.151
			c0.549,3.776,1.498,7.255,2.67,9.796c1.221,2.646,2.322,3.496,2.94,3.402c0.353-0.051,0.675,0.191,0.726,0.541
			c0.051,0.349-0.19,0.674-0.541,0.725C342.82,250.63,342.725,250.639,342.629,250.639z"/>
		<path fill="#FFFFFF" d="M340.461,250.953c-1.366,0-2.744-1.428-4.002-4.155c-1.223-2.647-2.207-6.252-2.773-10.146
			c-1.057-7.268-0.47-15.239,2.699-15.7c0.352-0.051,0.674,0.191,0.725,0.54c0.051,0.349-0.189,0.674-0.541,0.725
			c-1.509,0.219-2.854,5.747-1.617,14.252c0.549,3.775,1.496,7.256,2.668,9.795c1.222,2.648,2.317,3.493,2.943,3.403
			c0.352-0.05,0.674,0.192,0.725,0.541c0.052,0.351-0.19,0.674-0.541,0.726C340.652,250.945,340.558,250.953,340.461,250.953z"/>
		<path fill="#FFFFFF" d="M338.293,251.268c-1.366,0-2.744-1.426-4.002-4.152c-1.224-2.65-2.206-6.254-2.772-10.147
			c-1.059-7.267-0.472-15.239,2.698-15.701c0.352-0.051,0.674,0.192,0.725,0.54c0.051,0.351-0.191,0.675-0.54,0.725
			c-1.51,0.22-2.855,5.748-1.617,14.251c0.549,3.777,1.495,7.257,2.667,9.798c1.222,2.646,2.316,3.494,2.943,3.403
			c0.352-0.051,0.674,0.19,0.725,0.539c0.051,0.352-0.19,0.675-0.539,0.727C338.483,251.261,338.389,251.268,338.293,251.268z"/>
		<path fill="#FFFFFF" d="M336.131,251.583c-3.056,0-5.755-7.249-6.781-14.302c-1.057-7.267-0.47-15.239,2.699-15.699
			c0.35-0.052,0.674,0.189,0.725,0.54c0.052,0.35-0.19,0.673-0.54,0.724c-1.51,0.22-2.854,5.748-1.618,14.252
			c1.236,8.505,4.104,13.416,5.611,13.201c0.352-0.052,0.673,0.189,0.725,0.54c0.051,0.349-0.19,0.673-0.541,0.724
			C336.317,251.577,336.224,251.583,336.131,251.583z"/>
		<path fill="#FFFFFF" d="M333.963,251.898c-3.057,0-5.756-7.248-6.781-14.301c-0.565-3.896-0.648-7.631-0.232-10.518
			c0.459-3.179,1.473-4.971,2.933-5.184c0.35-0.052,0.674,0.191,0.725,0.541c0.051,0.349-0.19,0.673-0.54,0.725
			c-0.622,0.091-1.436,1.215-1.852,4.102c-0.399,2.77-0.316,6.373,0.232,10.149c1.236,8.503,4.099,13.415,5.611,13.199
			c0.352-0.051,0.674,0.191,0.725,0.541s-0.19,0.674-0.539,0.725C334.149,251.893,334.057,251.898,333.963,251.898z"/>
		<path fill="#FFFFFF" d="M331.795,252.214c-3.057,0-5.756-7.249-6.781-14.301c-0.565-3.895-0.648-7.629-0.231-10.518
			c0.458-3.179,1.472-4.972,2.932-5.184c0.351-0.051,0.673,0.192,0.725,0.541s-0.19,0.674-0.541,0.725
			c-0.622,0.09-1.436,1.215-1.851,4.1c-0.399,2.771-0.316,6.375,0.232,10.151c1.236,8.504,4.101,13.418,5.61,13.2
			c0.35-0.052,0.674,0.191,0.726,0.54c0.051,0.351-0.19,0.675-0.541,0.726C331.98,252.207,331.888,252.214,331.795,252.214z"/>
		<path fill="#FFFFFF" d="M329.627,252.529c-3.056,0-5.755-7.249-6.781-14.302c-0.565-3.894-0.647-7.629-0.232-10.516
			c0.458-3.179,1.473-4.972,2.933-5.184c0.349-0.052,0.673,0.19,0.725,0.539c0.051,0.351-0.19,0.675-0.541,0.725
			c-0.622,0.091-1.436,1.216-1.851,4.102c-0.399,2.77-0.317,6.375,0.232,10.149c1.236,8.505,4.1,13.425,5.611,13.201
			c0.35-0.052,0.673,0.19,0.725,0.542c0.051,0.348-0.191,0.672-0.54,0.723C329.812,252.521,329.719,252.529,329.627,252.529z"/>
		<path fill="#FFFFFF" d="M327.459,252.846c-3.058,0-5.756-7.25-6.781-14.303c-1.058-7.267-0.471-15.239,2.698-15.699
			c0.351-0.052,0.674,0.189,0.725,0.54c0.053,0.35-0.189,0.673-0.54,0.725c-1.51,0.22-2.854,5.747-1.618,14.251
			c1.237,8.504,4.101,13.416,5.611,13.201c0.349-0.052,0.675,0.19,0.727,0.539c0.05,0.351-0.191,0.676-0.541,0.726
			C327.645,252.839,327.552,252.846,327.459,252.846z"/>
		<path fill="#FFFFFF" d="M325.29,253.158c-3.056,0-5.755-7.246-6.78-14.299c-0.566-3.896-0.648-7.63-0.233-10.519
			c0.46-3.178,1.473-4.971,2.934-5.183c0.349-0.05,0.674,0.191,0.725,0.541c0.05,0.349-0.191,0.673-0.541,0.725
			c-0.622,0.091-1.436,1.214-1.851,4.1c-0.399,2.771-0.317,6.375,0.231,10.152c1.237,8.503,4.103,13.418,5.612,13.198
			c0.351-0.05,0.673,0.191,0.725,0.541c0.051,0.35-0.191,0.674-0.54,0.725C325.477,253.152,325.383,253.158,325.29,253.158z"/>
		<circle fill="#FFFFFF" cx="331.333" cy="257.998" r="1.277"/>
		<circle fill="#FFFFFF" cx="326.778" cy="273.322" r="0.975"/>
		<path fill="#FFFFFF" d="M350.352,247.335c-0.288-0.103-1.182-0.86-2.248-3.329c-1.045-2.417-1.896-5.648-2.398-9.096
			c-0.502-3.448-0.604-6.788-0.293-9.402c0.321-2.683,0.967-3.659,1.211-3.835c0.266,0.091,1.166,0.837,2.244,3.332
			c1.047,2.418,1.898,5.647,2.399,9.097c0.502,3.447,0.604,6.787,0.292,9.402C351.24,246.175,350.599,247.152,350.352,247.335z"/>
	</g>
</g>
</svg>
